<?xml version="1.0" encoding="utf-8"?>
<!-- Generator: Adobe Illustrator 27.3.1, SVG Export Plug-In . SVG Version: 6.00 Build 0)  -->
<svg version="1.0" id="Layer_1" xmlns="http://www.w3.org/2000/svg" xmlns:xlink="http://www.w3.org/1999/xlink" x="0px" y="0px"
	 viewBox="0 0 1030.2207 121.9314" style="enable-background:new 0 0 1030.2207 121.9314;" xml:space="preserve">
<style type="text/css">
	.st0{fill:#FD3664;}
</style>
<g>
	<path class="st0" d="M90.2921,73.788v44.3581H40.8446c-4.119,0-7.9607-0.4357-11.5054-1.307
		c-3.5645-0.8713-6.6537-2.3763-9.2677-4.4754c-2.6338-2.1189-4.7131-4.9705-6.2577-8.5746
		c-1.5446-3.6041-2.3169-8.1785-2.3169-13.7431V9.9637h34.0013c0,2.7724-0.6139,5.5844-1.8615,8.4162
		c-1.2278,2.8318-2.8318,5.6636-4.7923,8.4954c-1.9605,2.8318-4.0992,5.723-6.4161,8.6538s-4.515,5.9804-6.5745,9.1093
		c-2.0595,3.1486-3.9209,6.4161-5.5646,9.8222c-1.6436,3.4061-2.7328,7.0102-3.2477,10.8123
		c-0.6139,5.0497,0.1584,8.8914,2.3169,11.5054c2.1585,2.6338,4.9705,4.515,8.4162,5.6438
		c3.4457,1.1288,7.1092,1.7426,10.9707,1.8615c3.8615,0.099,7.129,0.1584,9.8222,0.1584c2.5744,0,5.5448-0.099,8.8914-0.3168
		c3.3467-0.198,6.8716-0.6337,10.5945-1.307c3.7031-0.6733,7.4656-1.7228,11.2876-3.1684
		C83.1433,78.2238,86.787,76.2633,90.2921,73.788z"/>
	<path class="st0" d="M190.2761,105.3139c-6.5943,4.9507-13.05,8.5746-19.3869,10.8915s-13.5253,3.4853-21.5652,3.4853
		c-8.3369,0-15.7036-0.9505-22.0999-2.8516c-6.3963-1.9011-11.743-4.6338-16.0798-8.1983
		c-4.3368-3.5447-7.6043-7.8023-9.8024-12.753c-2.2179-4.9507-3.3269-10.3964-3.3269-16.3769c0-6.0794,1.109-11.5648,3.3269-16.4561
		s5.4854-9.1093,9.8024-12.6738c4.3368-3.5447,9.6835-6.2775,16.0798-8.1983c6.3963-1.9011,13.7629-2.8516,22.0999-2.8516
		c4.3368,0,8.7726,0.5743,13.3669,1.703c4.5744,1.1288,8.7726,2.911,12.5945,5.3269c3.8021,2.4159,6.9508,5.4656,9.4261,9.1093
		c2.4753,3.6635,3.7031,8.0597,3.7031,13.2084c0,2.2773-0.4357,4.4556-1.307,6.5745c-0.8713,2.1189-2.2971,3.9605-4.2576,5.5646
		s-4.4754,2.8912-7.5647,3.8615s-6.8517,1.4654-11.2876,1.4654h-31.6844c0.4158,4.3368,1.2674,8.2973,2.5546,11.9014
		c1.2872,3.6041,3.0694,6.6933,5.327,9.2677c2.2575,2.5744,5.0497,4.5744,8.3369,6.02c3.2873,1.4456,7.2082,2.1585,11.743,2.1585
		c4.317,0,8.832-0.8713,13.5253-2.6338c4.6933-1.7426,9.8618-4.7923,15.5253-9.1093L190.2761,105.3139z M149.4825,45.1928
		c-2.3763,0-4.4754,0.7129-6.3369,2.1585s-3.4457,3.3269-4.7923,5.6438c-1.3466,2.3169-2.4555,4.9309-3.3269,7.8023
		c-0.8713,2.8912-1.5644,5.7626-2.0793,8.6538s-0.8317,5.6438-0.9307,8.2577c-0.099,2.6338-0.0594,4.8121,0.1584,6.5745
		c6.0795-0.099,10.9509-0.4951,14.5946-1.1684c3.6635-0.6733,6.4557-1.7822,8.4162-3.3269c1.9605-1.5446,3.2873-3.5447,4.02-6.02
		c0.7129-2.4753,1.1288-5.5646,1.2278-9.2677c0.099-2.3763,0-4.7131-0.3168-7.03c-0.3169-2.3169-0.8713-4.3764-1.703-6.1785
		c-0.8317-1.8021-1.9605-3.2675-3.4061-4.3962C153.6015,45.7671,151.7598,45.1928,149.4825,45.1928z"/>
	<path class="st0" d="M244.3574,10.2806c-1.8615,2.7724-3.4853,6.931-4.8715,12.4361c-1.3862,5.5052-2.5546,11.5648-3.4853,18.1591
		h14.6738v14.0599c-2.0595-1.1288-4.5348-2.0793-7.426-2.8516s-5.6636-1.307-8.337-1.6238
		c-0.5149,4.9507-0.9307,9.7826-1.2278,14.5352c-0.3168,4.7329-0.5149,9.1093-0.6139,13.1292c-0.099,4.02-0.099,7.4656,0,10.3568
		c0.099,2.8912,0.3168,4.9507,0.6139,6.1785c0.5149,2.0595,1.3664,3.6635,2.5546,4.7923c1.1882,1.1288,2.4951,1.703,3.9408,1.703
		c2.0595,0,4.0199-1.3862,5.8814-4.1784c1.8615-2.7724,2.7724-7.426,2.7724-13.9015h1.8615c0,5.0497-0.6535,9.8222-1.9209,14.2976
		c-1.2872,4.4754-3.1486,8.3766-5.5646,11.6638c-2.4159,3.3071-5.3665,5.9012-8.8122,7.8023
		c-3.4457,1.9011-7.3468,2.8516-11.6638,2.8516c-4.5348,0-8.2974-0.6139-11.2876-1.8615c-2.9902-1.2278-5.3665-2.9902-7.1092-5.2477
		c-1.7624-2.2575-2.9902-4.9111-3.7031-7.9607c-0.7129-3.0298-1.0892-6.3567-1.0892-9.9608l-0.4555-44.4968h-2.6338v-9.2677h3.0892
		V26.2218L244.3574,10.2806z"/>
	<path class="st0" d="M259.962,19.2314c0-5.1487,1.5446-9.2677,4.6338-12.3569s7.2082-4.6338,12.3569-4.6338
		c5.1487,0,9.2677,1.5446,12.3569,4.6338s4.6339,7.2082,4.6339,12.3569s-1.5446,9.2677-4.6339,12.3569
		c-3.0892,3.0892-7.2082,4.6338-12.3569,4.6338c-5.1487,0-9.2677-1.5446-12.3569-4.6338S259.962,24.3801,259.962,19.2314z
		 M259.962,40.8758h34.0013v77.2703H259.962V40.8758z"/>
	<path class="st0" d="M335.6877,79.511c0,4.7329,0.4555,9.3073,1.3862,13.6837s2.4951,8.2379,4.713,11.5846
		c2.2179,3.3467,5.1091,6.0002,8.6538,7.9607c3.5645,1.9605,7.9607,2.9308,13.2084,2.9308c4.5348,0,9.2281-0.9505,14.06-2.8516
		s9.941-4.9111,15.2877-9.0499l0.9307,1.5446c-6.5943,4.9507-13.05,8.5746-19.3869,10.8915
		c-6.3369,2.3169-13.5253,3.4853-21.5652,3.4853c-8.3369,0-15.7036-0.9505-22.0999-2.8516
		c-6.3963-1.9011-11.743-4.6338-16.0798-8.1983c-4.3368-3.5447-7.6042-7.8023-9.8023-12.753
		c-2.2179-4.9507-3.3268-10.3964-3.3268-16.3769c0-6.0794,1.1089-11.5648,3.3268-16.4561s5.4655-9.1093,9.743-12.6738
		c4.2774-3.5447,9.5449-6.2775,15.8422-8.1983c6.2775-1.9011,13.5451-2.8516,21.783-2.8516c6.8913,0,13.446,0.1584,19.6245,0.4555
		c6.1784,0.3168,12.0995,0.6733,17.7631,1.0891l-4.7923,37.0905c-1.6436-3.7031-3.4061-7.4854-5.2477-11.3668
		c-1.8615-3.8615-3.8813-7.3864-6.0992-10.5945c-2.2179-3.1882-4.7131-5.8022-7.4854-7.8023c-2.7724-2.0199-5.8814-3.01-9.2677-3.01
		c-2.6734,0-5.2873,0.8317-7.8023,2.4753c-2.5348,1.6436-4.7923,3.9605-6.7923,6.9508s-3.6041,6.5943-4.7923,10.8123
		C336.2818,69.6492,335.6877,74.3425,335.6877,79.511z"/>
	<path class="st0" d="M401.6704,19.2314c0-5.1487,1.5446-9.2677,4.6338-12.3569c3.0892-3.0892,7.2082-4.6338,12.3569-4.6338
		s9.2677,1.5446,12.3569,4.6338c3.0892,3.0892,4.6338,7.2082,4.6338,12.3569s-1.5446,9.2677-4.6338,12.3569
		c-3.0892,3.0892-7.2082,4.6338-12.3569,4.6338s-9.2677-1.5446-12.3569-4.6338C403.215,28.4991,401.6704,24.3801,401.6704,19.2314z
		 M401.6704,40.8758h34.0013v77.2703h-34.0013V40.8758z"/>
	<path class="st0" d="M483.4161,118.1263c2.0594-3.6041,3.7823-7.3072,5.1685-11.1291c1.3862-3.8021,2.4951-7.5647,3.3268-11.2876
		c-1.5446,2.4753-3.3665,5.1289-5.4854,7.9607c-2.1189,2.8318-4.4556,5.4259-7.03,7.8023
		c-2.5744,2.3763-5.3269,4.3368-8.2578,5.8814c-2.9308,1.5446-6.0002,2.3169-9.1885,2.3169c-2.4753,0-4.8715-0.5743-7.1884-1.703
		c-2.3169-1.1288-4.3368-2.7328-6.02-4.7923c-1.703-2.0595-3.0496-4.6338-4.02-7.7231c-0.9901-3.0892-1.3664-6.5349-1.1684-10.3568
		c0.198-4.119,1.4456-7.9805,3.7031-11.5846c2.2575-3.6041,5.3071-6.8517,9.1093-9.743l-4.3368-32.9122
		c1.7426-0.099,4.2576-0.2574,7.4854-0.4555c3.2477-0.198,6.8319-0.3762,10.7331-0.5347c3.9209-0.1584,7.9607-0.2772,12.1391-0.3762
		c4.1784-0.099,7.9607-0.1584,11.3668-0.1584c6.3765,0,11.7628,0.7129,16.1392,2.1585c4.3764,1.4456,7.9013,3.5249,10.5945,6.2577
		c2.6734,2.7328,4.614,6.0992,5.8022,10.1192c1.1882,4.02,1.7822,8.5944,1.7822,13.7431v46.5166
		C528.0712,118.1263,483.4161,118.1263,483.4161,118.1263z M492.8422,62.6588c-0.5149-2.0595-1.1882-4.119-2.0001-6.1785
		c-0.8317-2.0595-1.8021-3.9209-2.9308-5.5646s-2.3763-2.9902-3.7031-4.02c-1.3466-1.0297-2.8318-1.5446-4.4754-1.5446
		c-2.7724,0-5.9012,1.9407-9.3469,5.8022c-3.4457,3.8615-7.1884,10.7331-11.2084,20.6345
		c4.4358-2.7724,9.5251-4.9705,15.2877-6.5745C480.2279,63.6094,486.3469,62.7578,492.8422,62.6588z M493.9313,84.9171
		c0.5149-3.6041,0.7129-7.0102,0.6139-10.1984c-0.099-3.1882-0.5149-6.5943-1.2278-10.1984
		c-7.0102,0.099-12.5352,1.0099-16.6145,2.713c-4.0794,1.703-6.8319,3.6239-8.2578,5.8022
		c-1.4456,2.1585-1.7625,4.3368-0.9307,6.4953c0.8317,2.1585,2.6338,3.7031,5.4061,4.6338
		c3.7031,1.2278,7.7825,1.8615,12.1985,1.8615c1.6436,0,3.2278-0.0792,4.713-0.2376
		C491.3174,85.6102,492.6838,85.333,493.9313,84.9171z"/>
	<path class="st0" d="M568.251,9.9637h34.0013v46.1998c7.2082-1.2278,12.8519-3.2873,16.9116-6.1785
		c4.0595-2.8912,6.6735-6.3567,7.8022-10.436c1.1288-4.0596,0.9308-8.634-0.6138-13.6837s-4.3369-10.3568-8.337-15.9214h34.0013
		c0.6139,6.0794-0.1386,11.6638-2.2377,16.7729c-2.1189,5.1091-5.2081,9.6637-9.2676,13.6837
		c-4.0793,4.02-8.9706,7.4458-14.6738,10.2776c-5.723,2.8318-11.9807,4.9705-18.7731,6.4161h22.7138l22.2582,61.032h-34.0013
		l-15.7629-43.269v43.269h-34.0013V9.9637H568.251z"/>
	<path class="st0" d="M746.1193,105.3139c-6.5943,4.9507-13.0698,8.5746-19.3869,10.8915
		c-6.3369,2.3169-13.5252,3.4853-21.5453,3.4853c-8.337,0-15.7036-0.9505-22.0999-2.8516s-11.743-4.6338-16.0798-8.1983
		c-4.317-3.5447-7.6042-7.8023-9.8024-12.753c-2.2179-4.9507-3.3268-10.3964-3.3268-16.3769c0-6.0794,1.1089-11.5648,3.3268-16.4561
		s5.4854-9.1093,9.8024-12.6738c4.3368-3.5447,9.6835-6.2775,16.0798-8.1983c6.3765-1.9011,13.7431-2.8516,22.0999-2.8516
		c4.317,0,8.7924,0.5743,13.3668,1.703c4.5942,1.1288,8.7924,2.911,12.5945,5.3269c3.8021,2.4159,6.9507,5.4656,9.4261,9.1093
		c2.4753,3.6635,3.7031,8.0597,3.7031,13.2084c0,2.2773-0.4357,4.4556-1.307,6.5745c-0.8713,2.1189-2.2971,3.9605-4.2576,5.5646
		s-4.4755,2.8912-7.5646,3.8615c-3.0892,0.9703-6.8517,1.4654-11.2876,1.4654h-31.6844c0.4158,4.3368,1.2674,8.2973,2.5546,11.9014
		c1.2872,3.6041,3.0694,6.6933,5.3269,9.2677c2.2576,2.5744,5.0497,4.5744,8.337,6.02c3.2872,1.4456,7.2082,2.1585,11.743,2.1585
		c4.317,0,8.832-0.8713,13.5253-2.6338c4.6932-1.7426,9.8618-4.7923,15.5253-9.1093L746.1193,105.3139z M705.3256,45.1928
		c-2.3763,0-4.4755,0.7129-6.3369,2.1585s-3.4655,3.3269-4.7923,5.6438c-1.3466,2.3169-2.4555,4.9309-3.3268,7.8023
		c-0.8713,2.8912-1.5644,5.7626-2.0792,8.6538c-0.5149,2.8912-0.8318,5.6438-0.9308,8.2577
		c-0.0989,2.6338-0.0594,4.8121,0.1584,6.5745c6.0794-0.099,10.9509-0.4951,14.5946-1.1684
		c3.6635-0.6733,6.4557-1.7822,8.4161-3.3269c1.9604-1.5446,3.2873-3.5447,4.02-6.02c0.7327-2.4753,1.1288-5.5646,1.2278-9.2677
		c0.099-2.3763,0-4.7131-0.3169-7.03c-0.3168-2.3169-0.8713-4.3764-1.703-6.1785c-0.8317-1.8021-1.9604-3.2675-3.4061-4.3962
		C709.4446,45.7671,707.5831,45.1928,705.3256,45.1928z"/>
	<path class="st0" d="M754.9117,77.9466V40.7174h68.9135v16.2184c0,3.0892-1.0099,5.8418-3.0099,8.2775
		c-2.0199,2.4159-4.7131,4.614-8.1191,6.5745s-7.3666,3.6833-11.9015,5.1685s-9.2676,2.812-14.2183,3.9408
		c-5.0497,1.1288-8.5944,2.1585-10.6539,3.0892s-3.0298,1.7228-2.9308,2.3961c0.0989,0.6733,1.1287,1.1882,3.0892,1.5446
		s4.4755,0.5347,7.5647,0.5347c2.7723,0,5.8418-0.1584,9.1885-0.4555c3.3467-0.3168,6.7527-0.7723,10.1984-1.3862
		c3.4457-0.6139,6.8715-1.3862,10.2776-2.3169c3.4061-0.9307,6.5349-2.0595,9.4261-3.4061v37.249h-68.9135v-16.2184
		c0-6.1785,2.9308-11.2084,8.8123-15.0699s13.8619-6.8716,23.9613-9.0301c5.8814-1.2278,10.2183-2.4753,13.0698-3.7031
		c2.8318-1.2278,4.4755-2.3169,4.9507-3.2477c0.4555-0.9307-0.1386-1.6832-1.7822-2.2377
		c-1.6436-0.5743-4.0793-0.8515-7.2676-0.8515c-4.6338,0-10.5548,0.7723-17.7631,2.3169
		C770.5757,71.6295,762.9516,74.2434,754.9117,77.9466z"/>
	<path class="st0" d="M923.8093,105.3139c-6.5943,4.9507-13.0698,8.5746-19.3869,10.8915
		c-6.3369,2.3169-13.5253,3.4853-21.5454,3.4853c-8.3369,0-15.7036-0.9505-22.0999-2.8516s-11.743-4.6338-16.0798-8.1983
		c-4.317-3.5447-7.6042-7.8023-9.8024-12.753c-2.2179-4.9507-3.3268-10.3964-3.3268-16.3769c0-6.0794,1.1089-11.5648,3.3268-16.4561
		s5.4854-9.1093,9.8024-12.6738c4.3368-3.5447,9.6836-6.2775,16.0798-8.1983c6.3765-1.9011,13.7431-2.8516,22.0999-2.8516
		c4.317,0,8.7924,0.5743,13.3668,1.703c4.5943,1.1288,8.7924,2.911,12.5945,5.3269c3.8021,2.4159,6.9508,5.4656,9.4261,9.1093
		c2.4753,3.6635,3.7031,8.0597,3.7031,13.2084c0,2.2773-0.4357,4.4556-1.3069,6.5745c-0.8713,2.1189-2.2972,3.9605-4.2576,5.5646
		s-4.4754,2.8912-7.5646,3.8615s-6.8517,1.4654-11.2876,1.4654h-31.6844c0.4158,4.3368,1.2674,8.2973,2.5546,11.9014
		c1.2872,3.6041,3.0694,6.6933,5.327,9.2677c2.2575,2.5744,5.0497,4.5744,8.3369,6.02c3.2873,1.4456,7.2083,2.1585,11.743,2.1585
		c4.317,0,8.832-0.8713,13.5252-2.6338c4.6932-1.7426,9.8618-4.7923,15.5254-9.1093L923.8093,105.3139z M883.0156,45.1928
		c-2.3763,0-4.4754,0.7129-6.3369,2.1585c-1.8615,1.4456-3.4655,3.3269-4.7923,5.6438c-1.3466,2.3169-2.4556,4.9309-3.3268,7.8023
		c-0.8713,2.8912-1.5645,5.7626-2.0793,8.6538c-0.5149,2.8912-0.8317,5.6438-0.9307,8.2577
		c-0.099,2.6338-0.0594,4.8121,0.1584,6.5745c6.0795-0.099,10.9509-0.4951,14.5946-1.1684
		c3.6635-0.6733,6.4557-1.7822,8.4162-3.3269c1.9604-1.5446,3.2872-3.5447,4.0199-6.02c0.7327-2.4753,1.1288-5.5646,1.2278-9.2677
		c0.099-2.3763,0-4.7131-0.3168-7.03s-0.8713-4.3764-1.703-6.1785c-0.8318-1.8021-1.9604-3.2675-3.4061-4.3962
		C887.1346,45.7671,885.293,45.1928,883.0156,45.1928z"/>
	<path class="st0" d="M931.5522,40.8758h34.0013v25.6446c1.2277-3.9209,2.8912-7.5448,4.9507-10.8915s4.3962-6.2379,7.03-8.6538
		c2.6337-2.4159,5.4853-4.2972,8.5745-5.6438c3.0892-1.3466,6.2775-2.0001,9.5845-2.0001c4.5349,0,8.2776,0.7723,11.2084,2.3169
		c2.9307,1.5446,5.2675,3.6239,7.0299,6.2577c1.7427,2.6338,2.9902,5.723,3.7031,9.2677s1.0891,7.3864,1.0891,11.5054v49.4474
		h-44.6552c2.4753-4.3368,4.5349-8.8518,6.1785-13.6045c1.6436-4.7329,2.8912-9.3469,3.7031-13.8223
		c0.8318-4.4754,1.307-8.6538,1.4654-12.5153c0.1584-3.8615-0.0792-7.03-0.6931-9.5053c-0.5149-2.3763-1.5446-4.1982-3.0892-5.4854
		c-1.5446-1.2872-3.2477-1.9209-5.0894-1.9209c-2.2773,0-4.4556,1.109-6.5745,3.3269s-3.5843,5.8022-4.3962,10.7331v42.8135
		h-34.0013V40.8758H931.5522z"/>
</g>
</svg>
