<?xml version="1.0" encoding="utf-8"?>
<!-- Generator: Adobe Illustrator 27.3.1, SVG Export Plug-In . SVG Version: 6.00 Build 0)  -->
<svg version="1.0" id="Layer_1" xmlns="http://www.w3.org/2000/svg" xmlns:xlink="http://www.w3.org/1999/xlink" x="0px" y="0px"
	 viewBox="0 0 124.189 124.2831" style="enable-background:new 0 0 124.189 124.2831;" xml:space="preserve">
<style type="text/css">
	.st0{fill-rule:evenodd;clip-rule:evenodd;fill:#F4FF71;stroke:#414141;stroke-width:4;stroke-miterlimit:10.0004;}
	.st1{fill-rule:evenodd;clip-rule:evenodd;fill:#414141;}
</style>
<g>
	<g>
		
			<ellipse transform="matrix(0.9951 -0.099 0.099 0.9951 -5.8546 6.4615)" class="st0" cx="62.1711" cy="62.2146" rx="59.995" ry="59.9953"/>
		<g>
			<path class="st1" d="M68.4579,56.4017c0.3034-0.3263,0.4216-0.4261,0.5065-0.5497c4.1371-6.0367,10.0461-7.8117,16.9407-6.752
				c7.9673,1.2262,13.066,6.8034,14.3676,15.3372c0.3088,2.0235,0.4623,4.0552,0.4608,6.1008
				c-0.0048,8.4968-0.0181,16.9928,0.0181,25.4889c0.0054,0.957-0.23,1.238-1.2107,1.2258c-4.4511-0.0534-8.9041-0.0528-13.3558,0
				c-0.974,0.0108-1.2234-0.267-1.2183-1.2253c0.0362-7.9241,0.0235-15.8482,0.0156-23.7717
				c-0.0028-1.801-0.1265-3.5906-0.633-5.3344c-1.6228-5.5939-7.9867-7.5576-12.5185-3.8379
				c-2.4486,2.0088-3.4057,4.6652-3.3872,7.7919c0.0397,7.4749,0.0117,14.9497,0.0117,22.4244c0,0.9806-0.0546,1.9643,0.0165,2.9392
				c0.0626,0.8471-0.2838,1.0105-1.0515,1.0054c-4.534-0.0305-9.0674-0.0337-13.6008,0.0019
				c-0.8226,0.0064-1.1181-0.1608-1.109-1.0651c0.0665-6.7376,0.0934-13.4785,0.0963-20.2168
				c0.0012-8.2921-0.0153-16.5834-0.0731-24.8748c-0.006-0.9078,0.1839-1.1763,1.1217-1.1658
				c4.534,0.0509,9.0677,0.0432,13.6011,0.0051c0.8163-0.0077,1.0441,0.2383,1.0181,1.0324
				C68.4185,52.67,68.4579,54.3815,68.4579,56.4017z"/>
			<path class="st1" d="M44.0885,73.5942c0,7.4716-0.0159,14.9439,0.019,22.4162c0.0038,0.9278-0.183,1.2583-1.1948,1.245
				c-4.4905-0.0597-8.9822-0.0458-13.4734-0.0083c-0.8338,0.007-1.1149-0.2015-1.114-1.0778
				c0.0219-15.0672,0.0181-30.1338-0.0042-45.2006c-0.0009-0.7848,0.1904-1.0473,1.014-1.0397
				c4.5734,0.0391,9.1468,0.0438,13.7193-0.0032c0.9126-0.0102,1.0546,0.3232,1.0511,1.1292
				C44.0777,58.5688,44.0897,66.0813,44.0885,73.5942z"/>
			<path class="st1" d="M36.3359,27.1551c6.0249,0.0063,9.9393,4.7787,8.5113,10.3759c-1.0791,4.2264-5.4501,6.6595-10.4953,5.8404
				c-5.359-0.8697-8.3461-6.0996-6.3713-11.1538C29.2132,29.0613,32.3672,27.1503,36.3359,27.1551z"/>
		</g>
	</g>
</g>
</svg>
