<?xml version="1.0" encoding="utf-8"?>
<!-- Generator: Adobe Illustrator 27.3.1, SVG Export Plug-In . SVG Version: 6.00 Build 0)  -->
<svg version="1.0" id="Layer_1" xmlns="http://www.w3.org/2000/svg" xmlns:xlink="http://www.w3.org/1999/xlink" x="0px" y="0px"
	 viewBox="0 0 155.5301 124.2831" style="enable-background:new 0 0 155.5301 124.2831;" xml:space="preserve">
<style type="text/css">
	.st0{fill:#F4FF71;}
	.st1{fill:none;stroke:#414141;stroke-width:4;stroke-miterlimit:10;}
</style>
<g>
	<g>
		<g>
			<path class="st0" d="M134.1422,122.1016H21.6259c-10.6961,0-19.3671-8.671-19.3671-19.3671V21.6259
				c0-10.6961,8.6709-19.367,19.367-19.367h112.5164c10.6961,0,19.367,8.6709,19.367,19.367v81.1087
				C153.5093,113.4307,144.8384,122.1016,134.1422,122.1016z"/>
			<path class="st1" d="M134.1422,122.1016H21.6259c-10.6961,0-19.3671-8.671-19.3671-19.3671V21.6259
				c0-10.6961,8.6709-19.367,19.367-19.367h112.5164c10.6961,0,19.367,8.6709,19.367,19.367v81.1087
				C153.5093,113.4307,144.8384,122.1016,134.1422,122.1016z"/>
		</g>
	</g>
	<path class="st1" d="M7.2222,19.139l61.0524,52.1022c5.7918,4.9427,13.4272,4.9427,19.219,0l61.0524-52.1022"/>
</g>
</svg>
